<svg width="16" height="29" viewBox="0 0 16 29" fill="none" xmlns="http://www.w3.org/2000/svg">
<path d="M14.323 28.6C14.6638 28.5849 14.9661 28.3772 15.0985 28.0642C15.2296 27.7526 15.1689 27.3945 14.9412 27.1417L2.73844 15.0555V15.0568C2.62666 14.9461 2.56319 14.7971 2.56319 14.6413C2.56319 14.4842 2.62667 14.3352 2.73844 14.2258L14.9412 2.0959C15.2862 1.75421 15.2862 1.19931 14.9412 0.856241C14.5962 0.514554 14.036 0.514554 13.6896 0.856241L1.48682 12.9425H1.48821C0.570535 13.8527 0.570535 15.3274 1.48821 16.2377L13.7048 28.3376C13.8676 28.5029 14.0898 28.5972 14.323 28.6Z" fill="#666666"/>
</svg>
