<svg width="16" height="29" viewBox="0 0 16 29" fill="none" xmlns="http://www.w3.org/2000/svg">
<path d="M1.67675 28.6C1.33591 28.5849 1.0337 28.3772 0.901231 28.0642C0.770138 27.7526 0.830853 27.3945 1.05854 27.1417L13.2613 15.0555V15.0568C13.3731 14.9461 13.4366 14.7971 13.4366 14.6413C13.4366 14.4842 13.3731 14.3352 13.2613 14.2258L1.05854 2.0959C0.713559 1.75421 0.713559 1.19931 1.05854 0.856241C1.40352 0.514554 1.96378 0.514554 2.31015 0.856241L14.5129 12.9425H14.5115C15.4292 13.8527 15.4292 15.3274 14.5115 16.2377L2.295 28.3376C2.13216 28.5029 1.90997 28.5972 1.67675 28.6Z" fill="#666666"/>
</svg>
